<?xml version="1.0" encoding="utf-8"?>
<!-- Generator: Adobe Illustrator 27.7.0, SVG Export Plug-In . SVG Version: 6.00 Build 0)  -->
<svg version="1.1" id="Capa_1" xmlns="http://www.w3.org/2000/svg" xmlns:xlink="http://www.w3.org/1999/xlink" x="0px" y="0px"
	 viewBox="0 0 121.7 121.7" style="enable-background:new 0 0 121.7 121.7;" xml:space="preserve">
<style type="text/css">
	.st0{fill:#126166;}
	.st1{fill:#FFFFFF;}
</style>
<circle class="st0" cx="60.8" cy="60.8" r="60.8"/>
<g>
	<path class="st1" d="M24.9,82.9h-7.5c0-24,17.9-25,18.1-25l0.3,7.5l-0.1-3.7l0.2,3.7C34.8,65.5,24.9,66.6,24.9,82.9z"/>
</g>
<g>
	<path class="st1" d="M104.4,82.9h-7.5C96.9,66,86.4,65.4,86,65.4l0.3-7.5C86.5,57.9,104.4,58.9,104.4,82.9z"/>
</g>
<g>
	<path class="st1" d="M58.2,93.1h-7.5c0-13.2-3.4-19-6.2-21.6C41.8,68.9,39,69,39,69l-0.6-7.5c0.6,0,6.1-0.3,11.2,4.4
		C55.3,71.2,58.2,80.3,58.2,93.1z"/>
</g>
<g>
	<path class="st1" d="M75.3,85.8h-7.5c0-7.1,2-12.6,5.9-16.4c5.4-5.1,12.3-4.9,12.6-4.9L86,72l0.2-3.7L86,72c0,0-4.2-0.1-7.2,2.9
		C76.5,77.2,75.3,80.9,75.3,85.8z"/>
</g>
<path class="st1" d="M68.7,70.1c0.7-1,1.4-1.9,2.2-2.7c1.5-1.5,3.2-2.5,4.8-3.2c-0.6-4.1-2.1-7.3-4.6-9.5c-4.1-3.6-8.9-3.2-9.5-3.1
	l0.8,7.4c0,0,2.1-0.1,3.7,1.3C67.4,61.4,68.4,66.3,68.7,70.1z"/>
<g>
	<path class="st1" d="M86.2,59.6"/>
</g>
<g>
	<g>
		<path class="st1" d="M33.2,31.5H40v5.8c1.6-2,3.1-3.5,4.5-4.4c2.3-1.6,4.9-2.3,7.8-2.3c3.3,0,5.9,0.8,7.9,2.4
			c1.1,0.9,2.1,2.3,3.1,4.1c1.5-2.2,3.3-3.8,5.4-4.9c2.1-1.1,4.4-1.6,7-1.6c5.5,0,9.3,2,11.3,6c1.1,2.1,1.6,5,1.6,8.7v40.6h-7.2V44
			c0-2.7-0.7-4.6-2.1-5.6c-1.4-1-3-1.5-5-1.5c-2.7,0-5,0.9-7,2.7c-2,1.8-2.9,4.8-2.9,9.1v23.9h-7V45.8c0-2.8-0.3-4.8-1-6.1
			c-1-1.9-3-2.9-5.9-2.9c-2.6,0-5,1-7.1,3c-2.1,2-3.2,5.7-3.2,11v26.5h-6.9V31.5z"/>
	</g>
</g>
</svg>
