<?xml version="1.0" encoding="utf-8"?>
<!-- Generator: Adobe Illustrator 27.7.0, SVG Export Plug-In . SVG Version: 6.00 Build 0)  -->
<svg version="1.1" id="Capa_1" xmlns="http://www.w3.org/2000/svg" xmlns:xlink="http://www.w3.org/1999/xlink" x="0px" y="0px"
	 viewBox="0 0 262 68.5" style="enable-background:new 0 0 262 68.5;" xml:space="preserve">
<style type="text/css">
	.st0{fill:#FFFFFF;}
</style>
<path class="st0" d="M73,31.8v-13c0-3.6-0.5-6.5-1.6-8.7c-2-4-5.8-6-11.3-6c-2.6,0-4.9,0.5-7,1.6c-2.1,1.1-3.9,2.7-5.4,4.9
	c-0.9-1.8-1.9-3.1-3.1-4.1c-2-1.6-4.6-2.4-7.9-2.4c-2.9,0-5.5,0.8-7.8,2.3c-1.3,0.9-2.8,2.4-4.5,4.4V5h-6.8v26.8
	c-4.9,1.2-15.7,6-15.7,24.6h7.5c0-11.6,5-15.5,8.2-16.8v11.2h6.9v-8.2c1.1,0.2,2.8,0.8,4.4,2.3c2.8,2.6,6.2,8.5,6.2,21.6h7.5
	c0-12.7-2.9-21.9-8.6-27.1c-3.6-3.3-7.4-4.2-9.5-4.4V24.3c0-5.3,1.1-9,3.2-11c2.1-2,4.5-3,7.1-3c2.9,0,4.8,1,5.9,2.9
	c0.7,1.3,1,3.3,1,6.1v26.8h7V32.8c0.6,0.2,1.3,0.5,1.9,1c1.3,1.1,2.2,6,2.6,9.9c0.7-1,1.4-1.9,2.2-2.7c1.5-1.5,3.2-2.5,4.8-3.2
	c-0.6-4.1-2.1-7.3-4.6-9.5c-2.4-2.1-5-2.8-6.9-3.1v-2.9c0-4.2,1-7.3,2.9-9.1c2-1.8,4.3-2.7,7-2.7c2,0,3.6,0.5,5,1.5
	c1.4,1,2.1,2.9,2.1,5.6v21.2c-2.3,0.6-5.1,1.9-7.6,4.2c-3.9,3.8-5.9,9.3-5.9,16.4h7.5c0-4.9,1.2-8.6,3.6-10.9
	c0.8-0.8,1.6-1.3,2.5-1.7v12.6H73V39.5c3.2,1.2,8.4,5,8.4,16.9h7.5C88.9,37.5,77.8,32.9,73,31.8z"/>
<g>
	<path class="st0" d="M96.1,20.2h4.1v3.5c1-1.2,1.9-2.1,2.6-2.6c1.4-0.9,2.9-1.4,4.6-1.4c1.9,0,3.5,0.5,4.7,1.4
		c0.7,0.5,1.3,1.4,1.8,2.4c0.9-1.3,2-2.3,3.2-2.9c1.2-0.6,2.6-0.9,4.1-0.9c3.3,0,5.5,1.2,6.7,3.6c0.6,1.3,1,3,1,5.1v16.2h-4.3V27.6
		c0-1.6-0.4-2.7-1.2-3.3c-0.8-0.6-1.8-0.9-3-0.9c-1.6,0-3,0.5-4.2,1.6c-1.2,1.1-1.7,2.9-1.7,5.4v14.2h-4.2V28.6
		c0-1.7-0.2-2.9-0.6-3.6c-0.6-1.1-1.8-1.7-3.5-1.7c-1.5,0-3,0.6-4.2,1.8c-1.3,1.2-1.9,3.4-1.9,6.5v12.9h-4.1V20.2z"/>
	<path class="st0" d="M147.5,30.3c0.9-0.1,1.5-0.5,1.8-1.1c0.2-0.4,0.3-0.9,0.3-1.5c0-1.4-0.5-2.3-1.4-3c-1-0.6-2.3-0.9-4.1-0.9
		c-2.1,0-3.5,0.6-4.4,1.7c-0.5,0.6-0.8,1.5-0.9,2.8H135c0.1-2.9,1-5,2.8-6.1c1.8-1.1,3.9-1.7,6.3-1.7c2.8,0,5,0.5,6.8,1.6
		c1.7,1.1,2.6,2.7,2.6,4.9v13.6c0,0.4,0.1,0.7,0.3,1c0.2,0.2,0.5,0.4,1.1,0.4c0.2,0,0.4,0,0.6,0s0.5-0.1,0.7-0.1v2.9
		c-0.6,0.2-1.1,0.3-1.4,0.3c-0.3,0-0.8,0.1-1.3,0.1c-1.4,0-2.4-0.5-3-1.5c-0.3-0.5-0.6-1.2-0.7-2.2c-0.8,1.1-2,2-3.5,2.8
		c-1.5,0.8-3.2,1.2-5,1.2c-2.2,0-4-0.7-5.4-2s-2.1-3-2.1-5c0-2.2,0.7-3.9,2.1-5.1c1.4-1.2,3.2-1.9,5.4-2.2L147.5,30.3z M139.2,41
		c0.8,0.7,1.8,1,3,1c1.4,0,2.8-0.3,4.1-1c2.2-1.1,3.3-2.8,3.3-5.3v-3.2c-0.5,0.3-1.1,0.6-1.9,0.8c-0.8,0.2-1.5,0.4-2.2,0.4l-2.4,0.3
		c-1.4,0.2-2.5,0.5-3.2,0.9c-1.2,0.7-1.8,1.8-1.8,3.3C137.9,39.4,138.3,40.3,139.2,41z"/>
	<path class="st0" d="M160,20.9h3.8v3.4c1.1-1.4,2.3-2.4,3.6-3c1.3-0.6,2.6-0.9,4.2-0.9c3.4,0,5.6,1.2,6.8,3.5c0.6,1.3,1,3.1,1,5.5
		v15.2h-4V29.7c0-1.4-0.2-2.6-0.6-3.5c-0.7-1.5-2-2.2-3.8-2.2c-0.9,0-1.7,0.1-2.3,0.3c-1.1,0.3-2,1-2.9,1.9
		c-0.7,0.8-1.1,1.6-1.3,2.4c-0.2,0.8-0.3,2-0.3,3.6v12.4h-4V20.9z"/>
	<path class="st0" d="M198.3,21.9c0.7,0.5,1.5,1.3,2.3,2.3v-3h3.7v21.5c0,3-0.4,5.4-1.3,7.1c-1.6,3.2-4.7,4.8-9.3,4.8
		c-2.5,0-4.7-0.6-6.4-1.7c-1.7-1.1-2.7-2.9-2.9-5.4h4c0.2,1.1,0.6,1.9,1.1,2.5c0.9,0.9,2.3,1.3,4.2,1.3c3,0,5-1.1,5.9-3.2
		c0.6-1.3,0.8-3.5,0.8-6.8c-0.8,1.2-1.7,2.1-2.9,2.7c-1.1,0.6-2.6,0.9-4.4,0.9c-2.6,0-4.8-0.9-6.7-2.7c-1.9-1.8-2.9-4.8-2.9-9
		c0-4,1-7,2.9-9.3c1.9-2.2,4.3-3.3,7-3.3C195.3,20.5,196.9,21,198.3,21.9z M198.8,26.1c-1.2-1.4-2.7-2.1-4.6-2.1
		c-2.8,0-4.7,1.3-5.7,3.9c-0.5,1.4-0.8,3.2-0.8,5.5c0,2.7,0.5,4.7,1.6,6.1c1.1,1.4,2.5,2.1,4.3,2.1c2.8,0,4.8-1.3,6-3.9
		c0.6-1.5,1-3.2,1-5.1C200.6,29.7,200,27.5,198.8,26.1z"/>
	<path class="st0" d="M210.4,12.1h4v32.4h-4V12.1z"/>
	<path class="st0" d="M233,30.3c0.9-0.1,1.5-0.5,1.8-1.1c0.2-0.4,0.3-0.9,0.3-1.5c0-1.4-0.5-2.3-1.4-3c-1-0.6-2.3-0.9-4.1-0.9
		c-2.1,0-3.5,0.6-4.4,1.7c-0.5,0.6-0.8,1.5-0.9,2.8h-3.7c0.1-2.9,1-5,2.8-6.1c1.8-1.1,3.9-1.7,6.3-1.7c2.8,0,5,0.5,6.8,1.6
		c1.7,1.1,2.6,2.7,2.6,4.9v13.6c0,0.4,0.1,0.7,0.3,1s0.5,0.4,1.1,0.4c0.2,0,0.4,0,0.6,0s0.5-0.1,0.7-0.1v2.9
		c-0.6,0.2-1.1,0.3-1.4,0.3c-0.3,0-0.8,0.1-1.3,0.1c-1.4,0-2.4-0.5-3-1.5c-0.3-0.5-0.6-1.2-0.7-2.2c-0.8,1.1-2,2-3.5,2.8
		c-1.5,0.8-3.2,1.2-5,1.2c-2.2,0-4-0.7-5.4-2c-1.4-1.3-2.1-3-2.1-5c0-2.2,0.7-3.9,2.1-5.1c1.4-1.2,3.2-1.9,5.4-2.2L233,30.3z
		 M224.6,41c0.8,0.7,1.8,1,3,1c1.4,0,2.8-0.3,4.1-1c2.2-1.1,3.3-2.8,3.3-5.3v-3.2c-0.5,0.3-1.1,0.6-1.9,0.8
		c-0.8,0.2-1.5,0.4-2.2,0.4l-2.4,0.3c-1.4,0.2-2.5,0.5-3.2,0.9c-1.2,0.7-1.8,1.8-1.8,3.3C223.4,39.4,223.8,40.3,224.6,41z"/>
	<path class="st0" d="M245.6,20.9h3.8V25c0.3-0.8,1.1-1.8,2.3-2.9s2.6-1.7,4.2-1.7c0.1,0,0.2,0,0.4,0c0.2,0,0.5,0,0.9,0.1v4.2
		c-0.2,0-0.5-0.1-0.7-0.1c-0.2,0-0.4,0-0.7,0c-2,0-3.5,0.6-4.6,1.9c-1.1,1.3-1.6,2.8-1.6,4.4v13.6h-4V20.9z"/>
</g>
</svg>
